<svg xmlns="http://www.w3.org/2000/svg" version="1.1" xmlns:xlink="http://www.w3.org/1999/xlink" viewBox="0 0 200 200"><rect width="200" height="200" fill="url('#gradient')"></rect><defs><linearGradient id="gradient" gradientTransform="rotate(39 0.5 0.5)"><stop offset="0%" stop-color="#ffffff"></stop><stop offset="100%" stop-color="#767676"></stop></linearGradient></defs><g><g fill="#445272" transform="matrix(6.111405835543766,0,0,6.111405835543766,3.4390037455040243,143.45147117316247)" stroke="#ee9044" stroke-width="0.2"><path d="M1.07-14.22L5.58-14.22L8.75-4.33L11.91-14.22L16.43-14.22L16.43 0L12.99 0L12.99-3.32L13.32-10.12L9.88 0L7.62 0L4.17-10.13L4.50-3.32L4.50 0L1.07 0L1.07-14.22ZM26.46 0L23.44-5.29L22.03-3.75L22.03 0L18.60 0L18.60-14.22L22.03-14.22L22.03-7.95L23.22-9.76L26.29-14.22L30.53-14.22L25.72-7.93L30.53 0L26.46 0Z"></path></g></g></svg>